<svg width="24" height="25" viewBox="0 0 24 25" fill="none" xmlns="http://www.w3.org/2000/svg">
<g id="CopySimple">
<path id="Vector" d="M16.942 6.4653H3.44202C3.2431 6.4653 3.05234 6.54342 2.91169 6.68247C2.77103 6.82153 2.69202 7.01012 2.69202 7.20678V20.5534C2.69202 20.75 2.77103 20.9386 2.91169 21.0777C3.05234 21.2167 3.2431 21.2948 3.44202 21.2948H16.942C17.1409 21.2948 17.3317 21.2167 17.4723 21.0777C17.613 20.9386 17.692 20.75 17.692 20.5534V7.20678C17.692 7.01012 17.613 6.82153 17.4723 6.68247C17.3317 6.54342 17.1409 6.4653 16.942 6.4653ZM16.192 19.8119H4.19202V7.94825H16.192V19.8119ZM20.692 4.24087V17.5875C20.692 17.7841 20.613 17.9727 20.4723 18.1118C20.3317 18.2508 20.1409 18.3289 19.942 18.3289C19.7431 18.3289 19.5523 18.2508 19.4117 18.1118C19.271 17.9727 19.192 17.7841 19.192 17.5875V4.98234H6.44202C6.2431 4.98234 6.05234 4.90422 5.91169 4.76517C5.77103 4.62612 5.69202 4.43752 5.69202 4.24087C5.69202 4.04421 5.77103 3.85562 5.91169 3.71656C6.05234 3.57751 6.2431 3.49939 6.44202 3.49939H19.942C20.1409 3.49939 20.3317 3.57751 20.4723 3.71656C20.613 3.85562 20.692 4.04421 20.692 4.24087Z" fill="white"/>
</g>
</svg>
