<svg width="88" height="87" viewBox="0 0 88 87" fill="none" xmlns="http://www.w3.org/2000/svg">
<g id="Frame">
<g id="Group">
<path id="Vector" d="M61.4076 0L5.14563 5.85954V62.1906L33.677 87V77.5452L82.7542 72.9821V16.5991L61.4076 0ZM80.4726 70.9021L31.3954 75.4768V81.9874L7.42722 61.1478V7.91642L60.7277 2.36225L80.4669 17.7169L80.4726 70.9021Z" fill="#03420D"/>
<path id="Vector_2" d="M44.4915 35.8486V35.4856C44.381 34.7819 44.0955 34.1171 43.6612 33.5524C43.2268 32.9877 42.6576 32.5413 42.0057 32.2539C41.3538 31.9666 40.6401 31.8477 39.9303 31.9081C39.2205 31.9685 38.5372 32.2063 37.9432 32.5997C37.3492 32.993 36.8636 33.5293 36.5309 34.1592C36.1982 34.7892 36.0292 35.4926 36.0392 36.2049C36.0493 36.9173 36.2381 37.6156 36.5885 38.2359C36.9388 38.8562 37.4394 39.3786 38.0443 39.755C35.7396 42.895 35.8894 42.7164 33.5906 45.8565C32.202 47.7521 35.1462 49.8896 36.529 48.0056C39.3579 44.1338 39.7555 43.5807 42.5844 39.7089C43.2245 39.3055 43.7407 38.7332 44.0762 38.0551C44.4117 37.377 44.5534 36.6194 44.4857 35.8659L44.4915 35.8486Z" fill="#03420D"/>
<path id="Vector_3" d="M55.3176 35.4856C55.2094 34.7795 54.9252 34.112 54.491 33.5448C54.0568 32.9775 53.4867 32.5288 52.8334 32.24C52.18 31.9512 51.4644 31.8317 50.7527 31.8925C50.0409 31.9533 49.3559 32.1924 48.761 32.5878C48.1661 32.9832 47.6803 33.5221 47.3486 34.1547C47.0169 34.7874 46.85 35.4934 46.8632 36.2077C46.8763 36.9219 47.0693 37.6213 47.4241 38.2412C47.7789 38.8612 48.2842 39.3818 48.8934 39.755C46.5887 42.895 46.7385 42.7164 44.4397 45.8565C43.0511 47.7521 45.9953 49.8896 47.3781 48.0056C50.207 44.1338 50.6046 43.5807 53.4335 39.7089C54.0736 39.3055 54.5898 38.7332 54.9253 38.0551C55.2608 37.377 55.4025 36.6194 55.3348 35.8659C55.3291 35.7219 55.3406 35.6066 55.3176 35.4856Z" fill="#03420D"/>
</g>
</g>
</svg>
